PathFileType	4	(X/Y/Z)	s01c0001.trc
DataRate	CameraRate	NumFrames	NumMarkers	Units	OrigDataRate	OrigDataStartFrame	OrigNumFrames
200	200	4	49	mm	200	1250	2000
Frame#	Time	racr			lacr			c7			jug			rlel			rdr			llel			ldr			s2			lic			ric			lasi			rasi			rpsi			lpsi			rgt			lgt			rth1			rth2			rth3			rth4			rlfc			rmfc			rsh1			rsh2			rsh3			rsh4			rlmal			rmmal			rcal			rtoe			rmt5			rmt1			lth1			lth2			lth4			lth3			llfc			lmfc			lsh1			lsh2			lsh3			lsh4			llmal			lmmal			lcal			ltoe			lmt1			lmt5			
		X1	Y1	Z1	X2	Y2	Z2	X3	Y3	Z3	X4	Y4	Z4	X5	Y5	Z5	X6	Y6	Z6	X7	Y7	Z7	X8	Y8	Z8	X9	Y9	Z9	X10	Y10	Z10	X11	Y11	Z11	X12	Y12	Z12	X13	Y13	Z13	X14	Y14	Z14	X15	Y15	Z15	X16	Y16	Z16	X17	Y17	Z17	X18	Y18	Z18	X19	Y19	Z19	X20	Y20	Z20	X21	Y21	Z21	X22	Y22	Z22	X23	Y23	Z23	X24	Y24	Z24	X25	Y25	Z25	X26	Y26	Z26	X27	Y27	Z27	X28	Y28	Z28	X29	Y29	Z29	X30	Y30	Z30	X31	Y31	Z31	X32	Y32	Z32	X33	Y33	Z33	X34	Y34	Z34	X35	Y35	Z35	X36	Y36	Z36	X37	Y37	Z37	X38	Y38	Z38	X39	Y39	Z39	X40	Y40	Z40	X41	Y41	Z41	X42	Y42	Z42	X43	Y43	Z43	X44	Y44	Z44	X45	Y45	Z45	X46	Y46	Z46	X47	Y47	Z47	X48	Y48	Z48	X49	Y49	Z49	
1250	6.2500	498.109192	1500.798340	-344.527679	307.025085	1484.792969	-684.620361	379.045044	1530.802368	-492.565186	509.586212	1460.052979	-563.220825	559.338562	1252.301270	-181.687637	718.915405	1055.545532	-72.582306	209.162186	1213.383667	-781.532776	214.236115	1007.793762	-953.288147	337.437927	1019.990784	-457.311523	366.146332	1090.485474	-674.790039	541.917419	1061.881592	-391.260010	417.577393	1026.070312	-677.370972	570.039795	1014.431335	-443.418121	379.893524	1050.527832	-419.893127	324.077087	1054.143311	-509.823151	513.668152	928.017700	-357.669617	333.869904	922.796204	-680.327393	535.046753	808.722900	-347.741821	540.676331	726.687439	-357.805176	534.353333	637.119690	-373.258087	578.385620	730.643066	-397.568787	503.876099	517.239441	-386.431030	443.606232	493.082031	-475.163910	489.868988	401.635681	-337.710388	484.818878	317.365845	-343.036560	469.340759	229.055527	-352.154663	509.680481	317.224365	-399.479156	447.239990	98.931618	-371.296875	447.558502	122.395355	-459.146820	393.762695	67.868553	-415.810944	651.928772	91.713844	-492.204895	581.425171	50.540264	-391.155792	561.334717	62.330334	-504.485504	318.585693	803.346313	-686.904663	338.594604	717.207703	-687.604614	388.484009	727.489746	-707.303223	354.982056	634.059265	-675.441528	363.287964	520.407104	-652.783325	391.141205	489.619446	-545.665771	304.993286	410.073578	-665.355042	303.406586	323.344727	-656.713440	304.454865	238.364563	-639.013245	366.156830	322.837860	-654.453064	317.346497	104.825058	-619.962830	382.609589	116.274429	-558.613892	304.851013	64.546532	-560.201477	543.427307	96.932388	-692.411438	498.435760	65.745354	-617.305420	426.204346	57.334797	-707.072571	
1251	6.2550	498.089447	1500.785522	-344.506714	306.990021	1484.790894	-684.585938	379.036774	1530.806641	-492.517670	509.589752	1460.028198	-563.211182	559.334290	1252.284180	-181.714737	718.914795	1055.543335	-72.577621	209.156921	1213.366699	-781.504272	214.217972	1007.762756	-953.245544	337.451569	1019.990479	-457.299530	366.158661	1090.479248	-674.772644	541.939331	1061.894775	-391.241730	417.577606	1026.052002	-677.371094	570.053223	1014.402954	-443.427673	379.917755	1050.531372	-419.901703	324.115601	1054.151001	-509.820557	513.684875	928.010559	-357.658600	333.888611	922.798218	-680.321045	535.052124	808.707397	-347.724091	540.688538	726.677979	-357.807922	534.371521	637.126160	-373.229218	578.398926	730.646484	-397.558472	503.885132	517.219177	-386.427704	443.626526	493.083771	-475.165985	489.867462	401.650665	-337.699371	484.831848	317.419525	-343.065063	469.341736	229.041977	-352.147614	509.681976	317.219086	-399.482544	447.253113	98.929474	-371.273346	447.560242	122.396187	-459.146667	393.754547	67.862160	-415.808746	651.928772	91.713829	-492.204926	581.485352	50.496346	-391.158936	561.334717	62.330315	-504.485535	318.597931	803.348572	-686.895935	338.606873	717.202087	-687.609131	388.495270	727.488708	-707.294434	354.997498	634.058228	-675.444336	363.272308	520.414062	-652.781921	391.125580	489.605072	-545.661255	304.987549	410.082550	-665.352783	303.403137	323.346466	-656.718933	304.454620	238.365677	-639.009949	366.161194	322.838806	-654.444275	317.359802	104.817223	-619.959961	382.600067	116.271667	-558.614624	304.854126	64.534271	-560.197327	543.419312	96.939728	-692.414429	498.430634	65.733559	-617.285767	426.203156	57.326195	-707.075317	
1252	6.2600	498.074005	1500.780273	-344.491577	306.990021	1484.790894	-684.585938	379.038147	1530.794922	-492.511963	509.582520	1460.032837	-563.172485	559.325562	1252.268066	-181.678085	718.910706	1055.538696	-72.561264	209.154068	1213.345459	-781.460022	214.207733	1007.738831	-953.195190	337.472748	1020.010193	-457.286438	366.189880	1090.473022	-674.771729	541.980774	1061.898682	-391.246063	417.603394	1026.054077	-677.364746	570.096191	1014.403442	-443.423370	379.947601	1050.518066	-419.881378	324.131470	1054.141968	-509.804779	513.719116	928.004761	-357.646149	333.899902	922.804504	-680.317383	535.069946	808.704834	-347.718536	540.717102	726.671326	-357.801697	534.394287	637.118958	-373.240295	578.429260	730.640686	-397.563019	503.914429	517.217834	-386.428833	443.629852	493.068939	-475.142700	489.873749	401.642700	-337.704132	484.792572	317.362885	-343.021912	469.352966	229.038254	-352.128540	509.689728	317.213806	-399.460175	447.250275	98.930389	-371.276794	447.561768	122.398109	-459.144775	393.761810	67.864471	-415.799530	651.929382	91.714783	-492.206940	581.485352	50.496349	-391.158936	561.335693	62.332058	-504.486420	318.610352	803.349487	-686.887451	338.612183	717.215149	-687.603882	388.506256	727.489075	-707.285706	354.995667	634.063049	-675.434570	363.282562	520.401001	-652.764404	391.147736	489.617554	-545.642334	304.998016	410.091248	-665.346191	303.416870	323.339661	-656.704407	304.452423	238.367661	-639.008423	366.166443	322.839813	-654.440979	317.359314	104.810280	-619.957581	382.605957	116.270752	-558.613708	304.848267	64.537346	-560.205017	543.414124	96.940323	-692.422485	498.420685	65.744812	-617.309143	426.199646	57.333199	-707.065369	
1253	6.2650	498.058655	1500.775513	-344.472961	306.989166	1484.752319	-684.553955	379.037384	1530.776489	-492.515900	509.581818	1460.017700	-563.172546	559.326660	1252.273926	-181.679123	718.891174	1055.517944	-72.544464	209.135391	1213.340576	-781.437500	214.194489	1007.712463	-953.134277	337.509369	1020.007446	-457.275787	366.188049	1090.465332	-674.773438	541.995911	1061.884888	-391.231873	417.606812	1026.049194	-677.371460	570.119934	1014.398499	-443.408051	379.965881	1050.529663	-419.864746	324.162628	1054.143799	-509.794037	513.755249	928.011780	-357.651367	333.928711	922.806152	-680.310791	535.106262	808.693359	-347.719727	540.716492	726.670166	-357.791870	534.396545	637.102905	-373.239288	578.439148	730.637756	-397.560028	503.906067	517.214355	-386.416962	443.651550	493.071594	-475.147125	489.873749	401.642700	-337.704132	484.811951	317.358673	-343.004913	469.359650	229.058655	-352.148712	509.698334	317.211304	-399.473602	447.252075	98.938263	-371.285950	447.563385	122.397980	-459.145599	393.757263	67.870377	-415.813446	651.929871	91.714722	-492.207184	581.461182	50.505630	-391.167419	561.338440	62.337334	-504.489075	318.625671	803.352234	-686.881958	338.634460	717.205566	-687.594299	388.517517	727.487793	-707.277527	355.005219	634.056396	-675.428284	363.288818	520.409668	-652.763245	391.137268	489.614075	-545.619629	304.999695	410.080353	-665.352783	303.428375	323.345978	-656.710388	304.455811	238.369339	-639.007324	366.166931	322.841644	-654.436523	317.366821	104.817879	-619.965332	382.629425	116.280174	-558.623474	304.848267	64.537354	-560.205017	543.440796	96.931541	-692.409302	498.445038	65.735367	-617.312378	426.205383	57.327824	-707.064453	
